<mxfile host="Electron" modified="2023-12-14T12:03:12.126Z" agent="Mozilla/5.0 (Windows NT 10.0; Win64; x64) AppleWebKit/537.36 (KHTML, like Gecko) draw.io/22.1.2 Chrome/114.0.5735.289 Electron/25.9.4 Safari/537.36" etag="lBncXYUnUdO6DgT5xzkJ" version="22.1.2" type="device">
  <diagram name="Page-1" id="FFA9UxrkgAWa3RQxIZZn">
    <mxGraphModel dx="2832" dy="1980" grid="1" gridSize="10" guides="1" tooltips="1" connect="1" arrows="1" fold="1" page="1" pageScale="1" pageWidth="850" pageHeight="1100" math="0" shadow="0">
      <root>
        <mxCell id="0" />
        <mxCell id="1" parent="0" />
        <mxCell id="5X7tObLMQbzSkKFwxiyW-83" value="west europe region" style="rounded=0;whiteSpace=wrap;html=1;fontSize=12;fillColor=none;strokeColor=#808080;dashed=1;dashPattern=1 1;verticalAlign=top;fontColor=#333333;align=left;" parent="1" vertex="1">
          <mxGeometry x="30" y="53" width="390" height="430" as="geometry" />
        </mxCell>
        <mxCell id="5X7tObLMQbzSkKFwxiyW-84" value="north europe region" style="rounded=0;whiteSpace=wrap;html=1;fontSize=12;fillColor=none;strokeColor=#808080;dashed=1;dashPattern=1 1;verticalAlign=top;fontColor=#333333;align=left;" parent="1" vertex="1">
          <mxGeometry x="440" y="53" width="730" height="430" as="geometry" />
        </mxCell>
        <mxCell id="5X7tObLMQbzSkKFwxiyW-85" value="" style="group" parent="1" vertex="1" connectable="0">
          <mxGeometry x="260" y="343" width="140" height="80" as="geometry" />
        </mxCell>
        <mxCell id="5X7tObLMQbzSkKFwxiyW-86" value="" style="rounded=1;whiteSpace=wrap;html=1;fontSize=16;dashed=1;strokeColor=#7EA6E0;arcSize=8;" parent="5X7tObLMQbzSkKFwxiyW-85" vertex="1">
          <mxGeometry width="140" height="80" as="geometry" />
        </mxCell>
        <mxCell id="5X7tObLMQbzSkKFwxiyW-87" value="hub-lab-net" style="aspect=fixed;html=1;points=[];align=center;image;fontSize=12;image=img/lib/azure2/networking/Virtual_Networks.svg;" parent="5X7tObLMQbzSkKFwxiyW-85" vertex="1">
          <mxGeometry x="53.25" y="30" width="33.5" height="20" as="geometry" />
        </mxCell>
        <mxCell id="5X7tObLMQbzSkKFwxiyW-88" value="" style="group" parent="1" vertex="1" connectable="0">
          <mxGeometry x="260" y="93" width="140" height="80" as="geometry" />
        </mxCell>
        <mxCell id="5X7tObLMQbzSkKFwxiyW-89" value="" style="rounded=1;whiteSpace=wrap;html=1;fontSize=16;dashed=1;strokeColor=#7EA6E0;arcSize=8;" parent="5X7tObLMQbzSkKFwxiyW-88" vertex="1">
          <mxGeometry width="140" height="80" as="geometry" />
        </mxCell>
        <mxCell id="5X7tObLMQbzSkKFwxiyW-90" value="spoke-02" style="aspect=fixed;html=1;points=[];align=center;image;fontSize=12;image=img/lib/azure2/networking/Virtual_Networks.svg;" parent="5X7tObLMQbzSkKFwxiyW-88" vertex="1">
          <mxGeometry x="53.25" y="30" width="33.5" height="20" as="geometry" />
        </mxCell>
        <mxCell id="5X7tObLMQbzSkKFwxiyW-91" value="" style="group" parent="1" vertex="1" connectable="0">
          <mxGeometry x="480" y="203" width="140" height="80" as="geometry" />
        </mxCell>
        <mxCell id="5X7tObLMQbzSkKFwxiyW-92" value="" style="rounded=1;whiteSpace=wrap;html=1;fontSize=16;dashed=1;strokeColor=#7EA6E0;arcSize=8;" parent="5X7tObLMQbzSkKFwxiyW-91" vertex="1">
          <mxGeometry width="140" height="80" as="geometry" />
        </mxCell>
        <mxCell id="5X7tObLMQbzSkKFwxiyW-93" value="spoke02" style="aspect=fixed;html=1;points=[];align=center;image;fontSize=12;image=img/lib/azure2/networking/Virtual_Networks.svg;" parent="5X7tObLMQbzSkKFwxiyW-91" vertex="1">
          <mxGeometry x="53.25" y="30" width="33.5" height="20" as="geometry" />
        </mxCell>
        <mxCell id="5X7tObLMQbzSkKFwxiyW-94" value="" style="group" parent="1" vertex="1" connectable="0">
          <mxGeometry x="40" y="203" width="140" height="80" as="geometry" />
        </mxCell>
        <mxCell id="5X7tObLMQbzSkKFwxiyW-95" value="" style="rounded=1;whiteSpace=wrap;html=1;fontSize=16;dashed=1;strokeColor=#7EA6E0;arcSize=8;" parent="5X7tObLMQbzSkKFwxiyW-94" vertex="1">
          <mxGeometry width="140" height="80" as="geometry" />
        </mxCell>
        <mxCell id="5X7tObLMQbzSkKFwxiyW-96" value="spoke-01" style="aspect=fixed;html=1;points=[];align=center;image;fontSize=12;image=img/lib/azure2/networking/Virtual_Networks.svg;" parent="5X7tObLMQbzSkKFwxiyW-94" vertex="1">
          <mxGeometry x="53.25" y="30" width="33.5" height="20" as="geometry" />
        </mxCell>
        <mxCell id="5X7tObLMQbzSkKFwxiyW-97" value="" style="group" parent="1" vertex="1" connectable="0">
          <mxGeometry x="648" y="353" width="140" height="80" as="geometry" />
        </mxCell>
        <mxCell id="5X7tObLMQbzSkKFwxiyW-98" value="" style="group" parent="5X7tObLMQbzSkKFwxiyW-97" vertex="1" connectable="0">
          <mxGeometry width="140" height="80" as="geometry" />
        </mxCell>
        <mxCell id="5X7tObLMQbzSkKFwxiyW-99" value="" style="rounded=1;whiteSpace=wrap;html=1;fontSize=16;dashed=1;strokeColor=#7EA6E0;arcSize=8;" parent="5X7tObLMQbzSkKFwxiyW-98" vertex="1">
          <mxGeometry width="140" height="80" as="geometry" />
        </mxCell>
        <mxCell id="5X7tObLMQbzSkKFwxiyW-100" value="hub-lab-net" style="aspect=fixed;html=1;points=[];align=center;image;fontSize=12;image=img/lib/azure2/networking/Virtual_Networks.svg;" parent="5X7tObLMQbzSkKFwxiyW-98" vertex="1">
          <mxGeometry x="53.25" y="30" width="33.5" height="20" as="geometry" />
        </mxCell>
        <mxCell id="5X7tObLMQbzSkKFwxiyW-101" value="" style="group" parent="1" vertex="1" connectable="0">
          <mxGeometry x="928" y="133" width="140" height="80" as="geometry" />
        </mxCell>
        <mxCell id="5X7tObLMQbzSkKFwxiyW-102" value="" style="rounded=1;whiteSpace=wrap;html=1;fontSize=16;dashed=1;strokeColor=#7EA6E0;arcSize=8;" parent="5X7tObLMQbzSkKFwxiyW-101" vertex="1">
          <mxGeometry width="140" height="80" as="geometry" />
        </mxCell>
        <mxCell id="5X7tObLMQbzSkKFwxiyW-103" value="spoke-05" style="aspect=fixed;html=1;points=[];align=center;image;fontSize=12;image=img/lib/azure2/networking/Virtual_Networks.svg;" parent="5X7tObLMQbzSkKFwxiyW-101" vertex="1">
          <mxGeometry x="53.25" y="30" width="33.5" height="20" as="geometry" />
        </mxCell>
        <mxCell id="5X7tObLMQbzSkKFwxiyW-104" value="" style="endArrow=classic;startArrow=classic;html=1;rounded=0;fontSize=12;startSize=8;endSize=8;curved=1;strokeColor=#7EA6E0;exitX=0.493;exitY=-0.058;exitDx=0;exitDy=0;exitPerimeter=0;" parent="1" edge="1">
          <mxGeometry width="50" height="50" relative="1" as="geometry">
            <mxPoint x="329.0200000000002" y="339.3600000000001" as="sourcePoint" />
            <mxPoint x="329.5" y="174" as="targetPoint" />
          </mxGeometry>
        </mxCell>
        <mxCell id="5X7tObLMQbzSkKFwxiyW-105" value="" style="endArrow=classic;startArrow=classic;html=1;rounded=0;fontSize=12;startSize=8;endSize=8;curved=1;strokeColor=#7EA6E0;entryX=0;entryY=1;entryDx=0;entryDy=0;" parent="1" target="5X7tObLMQbzSkKFwxiyW-92" edge="1">
          <mxGeometry width="50" height="50" relative="1" as="geometry">
            <mxPoint x="400" y="343" as="sourcePoint" />
            <mxPoint x="430.48" y="265.31999999999994" as="targetPoint" />
          </mxGeometry>
        </mxCell>
        <mxCell id="5X7tObLMQbzSkKFwxiyW-106" value="" style="endArrow=classic;startArrow=classic;html=1;rounded=0;fontSize=12;startSize=8;endSize=8;curved=1;strokeColor=#7EA6E0;entryX=0;entryY=1;entryDx=0;entryDy=0;" parent="1" edge="1">
          <mxGeometry width="50" height="50" relative="1" as="geometry">
            <mxPoint x="260" y="343" as="sourcePoint" />
            <mxPoint x="180" y="283" as="targetPoint" />
          </mxGeometry>
        </mxCell>
        <mxCell id="5X7tObLMQbzSkKFwxiyW-107" value="" style="endArrow=classic;startArrow=classic;html=1;rounded=0;fontSize=12;startSize=8;endSize=8;curved=1;strokeColor=#7EA6E0;" parent="1" edge="1">
          <mxGeometry width="50" height="50" relative="1" as="geometry">
            <mxPoint x="755" y="331" as="sourcePoint" />
            <mxPoint x="742" y="154" as="targetPoint" />
          </mxGeometry>
        </mxCell>
        <mxCell id="5X7tObLMQbzSkKFwxiyW-108" value="" style="shadow=0;dashed=0;html=1;strokeColor=none;fillColor=#4495D1;labelPosition=center;verticalLabelPosition=bottom;verticalAlign=top;align=center;outlineConnect=0;shape=mxgraph.veeam.globe;fontSize=16;" parent="1" vertex="1">
          <mxGeometry x="481" y="30" width="30" height="30" as="geometry" />
        </mxCell>
        <mxCell id="5X7tObLMQbzSkKFwxiyW-109" value="" style="shadow=0;dashed=0;html=1;strokeColor=none;fillColor=#4495D1;labelPosition=center;verticalLabelPosition=bottom;verticalAlign=top;align=center;outlineConnect=0;shape=mxgraph.veeam.globe;fontSize=16;" parent="1" vertex="1">
          <mxGeometry x="60" y="30.399999999999977" width="30" height="29.2" as="geometry" />
        </mxCell>
        <mxCell id="5X7tObLMQbzSkKFwxiyW-110" value="" style="endArrow=classic;startArrow=classic;html=1;rounded=0;fontSize=12;startSize=8;endSize=8;curved=1;strokeColor=#7EA6E0;" parent="1" edge="1">
          <mxGeometry width="50" height="50" relative="1" as="geometry">
            <mxPoint x="807" y="386" as="sourcePoint" />
            <mxPoint x="997" y="424" as="targetPoint" />
          </mxGeometry>
        </mxCell>
        <mxCell id="5X7tObLMQbzSkKFwxiyW-111" value="" style="endArrow=classic;startArrow=classic;html=1;rounded=0;fontSize=12;startSize=8;endSize=8;curved=1;strokeColor=#7EA6E0;" parent="1" edge="1">
          <mxGeometry width="50" height="50" relative="1" as="geometry">
            <mxPoint x="1013" y="357" as="sourcePoint" />
            <mxPoint x="809" y="365" as="targetPoint" />
          </mxGeometry>
        </mxCell>
        <mxCell id="5X7tObLMQbzSkKFwxiyW-112" value="" style="endArrow=classic;startArrow=classic;html=1;rounded=0;fontSize=12;startSize=8;endSize=8;curved=1;strokeColor=#7EA6E0;" parent="1" edge="1">
          <mxGeometry width="50" height="50" relative="1" as="geometry">
            <mxPoint x="990" y="250" as="sourcePoint" />
            <mxPoint x="803" y="350" as="targetPoint" />
          </mxGeometry>
        </mxCell>
        <mxCell id="5X7tObLMQbzSkKFwxiyW-113" value="" style="endArrow=classic;startArrow=classic;html=1;rounded=0;fontSize=12;startSize=8;endSize=8;curved=1;strokeColor=#7EA6E0;" parent="1" edge="1">
          <mxGeometry width="50" height="50" relative="1" as="geometry">
            <mxPoint x="791" y="338" as="sourcePoint" />
            <mxPoint x="922" y="189" as="targetPoint" />
          </mxGeometry>
        </mxCell>
        <mxCell id="5X7tObLMQbzSkKFwxiyW-114" value="" style="group" parent="1" vertex="1" connectable="0">
          <mxGeometry x="998" y="203" width="140" height="80" as="geometry" />
        </mxCell>
        <mxCell id="5X7tObLMQbzSkKFwxiyW-115" value="" style="rounded=1;whiteSpace=wrap;html=1;fontSize=16;dashed=1;strokeColor=#7EA6E0;arcSize=8;" parent="5X7tObLMQbzSkKFwxiyW-114" vertex="1">
          <mxGeometry width="140" height="80" as="geometry" />
        </mxCell>
        <mxCell id="5X7tObLMQbzSkKFwxiyW-116" value="spoke-05" style="aspect=fixed;html=1;points=[];align=center;image;fontSize=12;image=img/lib/azure2/networking/Virtual_Networks.svg;" parent="5X7tObLMQbzSkKFwxiyW-114" vertex="1">
          <mxGeometry x="53.25" y="30" width="33.5" height="20" as="geometry" />
        </mxCell>
        <mxCell id="5X7tObLMQbzSkKFwxiyW-117" value="" style="group" parent="1" vertex="1" connectable="0">
          <mxGeometry x="998" y="383" width="140" height="80" as="geometry" />
        </mxCell>
        <mxCell id="5X7tObLMQbzSkKFwxiyW-118" value="" style="rounded=1;whiteSpace=wrap;html=1;fontSize=16;dashed=1;strokeColor=#7EA6E0;arcSize=8;" parent="5X7tObLMQbzSkKFwxiyW-117" vertex="1">
          <mxGeometry width="140" height="80" as="geometry" />
        </mxCell>
        <mxCell id="5X7tObLMQbzSkKFwxiyW-119" value="spoke-05" style="aspect=fixed;html=1;points=[];align=center;image;fontSize=12;image=img/lib/azure2/networking/Virtual_Networks.svg;" parent="5X7tObLMQbzSkKFwxiyW-117" vertex="1">
          <mxGeometry x="53.25" y="30" width="33.5" height="20" as="geometry" />
        </mxCell>
        <mxCell id="5X7tObLMQbzSkKFwxiyW-120" value="" style="group" parent="1" vertex="1" connectable="0">
          <mxGeometry x="1018" y="293" width="140" height="80" as="geometry" />
        </mxCell>
        <mxCell id="5X7tObLMQbzSkKFwxiyW-121" value="" style="rounded=1;whiteSpace=wrap;html=1;fontSize=16;dashed=1;strokeColor=#7EA6E0;arcSize=8;" parent="5X7tObLMQbzSkKFwxiyW-120" vertex="1">
          <mxGeometry width="140" height="80" as="geometry" />
        </mxCell>
        <mxCell id="5X7tObLMQbzSkKFwxiyW-122" value="spoke-05" style="aspect=fixed;html=1;points=[];align=center;image;fontSize=12;image=img/lib/azure2/networking/Virtual_Networks.svg;" parent="5X7tObLMQbzSkKFwxiyW-120" vertex="1">
          <mxGeometry x="53.25" y="30" width="33.5" height="20" as="geometry" />
        </mxCell>
        <mxCell id="5X7tObLMQbzSkKFwxiyW-123" value="" style="endArrow=classic;startArrow=classic;html=1;rounded=0;fontSize=12;startSize=8;endSize=8;curved=1;strokeColor=#7EA6E0;" parent="1" edge="1">
          <mxGeometry width="50" height="50" relative="1" as="geometry">
            <mxPoint x="773" y="333" as="sourcePoint" />
            <mxPoint x="840" y="174" as="targetPoint" />
          </mxGeometry>
        </mxCell>
        <mxCell id="5X7tObLMQbzSkKFwxiyW-124" value="" style="group" parent="1" vertex="1" connectable="0">
          <mxGeometry x="628" y="73" width="140" height="80" as="geometry" />
        </mxCell>
        <mxCell id="5X7tObLMQbzSkKFwxiyW-125" value="" style="rounded=1;whiteSpace=wrap;html=1;fontSize=16;dashed=1;strokeColor=#7EA6E0;arcSize=8;" parent="5X7tObLMQbzSkKFwxiyW-124" vertex="1">
          <mxGeometry width="140" height="80" as="geometry" />
        </mxCell>
        <mxCell id="5X7tObLMQbzSkKFwxiyW-126" value="spoke-04" style="aspect=fixed;html=1;points=[];align=center;image;fontSize=12;image=img/lib/azure2/networking/Virtual_Networks.svg;" parent="5X7tObLMQbzSkKFwxiyW-124" vertex="1">
          <mxGeometry x="53.25" y="30" width="33.5" height="20" as="geometry" />
        </mxCell>
        <mxCell id="5X7tObLMQbzSkKFwxiyW-127" value="" style="group" parent="1" vertex="1" connectable="0">
          <mxGeometry x="778" y="88" width="140" height="80" as="geometry" />
        </mxCell>
        <mxCell id="5X7tObLMQbzSkKFwxiyW-128" value="" style="rounded=1;whiteSpace=wrap;html=1;fontSize=16;dashed=1;strokeColor=#7EA6E0;arcSize=8;" parent="5X7tObLMQbzSkKFwxiyW-127" vertex="1">
          <mxGeometry width="140" height="80" as="geometry" />
        </mxCell>
        <mxCell id="5X7tObLMQbzSkKFwxiyW-129" value="spoke-05" style="aspect=fixed;html=1;points=[];align=center;image;fontSize=12;image=img/lib/azure2/networking/Virtual_Networks.svg;" parent="5X7tObLMQbzSkKFwxiyW-127" vertex="1">
          <mxGeometry x="53.25" y="30" width="33.5" height="20" as="geometry" />
        </mxCell>
        <mxCell id="5X7tObLMQbzSkKFwxiyW-130" value="france central region" style="rounded=0;whiteSpace=wrap;html=1;fontSize=12;fillColor=none;strokeColor=#808080;dashed=1;dashPattern=1 1;verticalAlign=top;fontColor=#333333;align=center;" parent="1" vertex="1">
          <mxGeometry x="135" y="555.5999999999999" width="205" height="167.4" as="geometry" />
        </mxCell>
        <mxCell id="5X7tObLMQbzSkKFwxiyW-131" value="" style="shadow=0;dashed=0;html=1;strokeColor=none;fillColor=#4495D1;labelPosition=center;verticalLabelPosition=bottom;verticalAlign=top;align=center;outlineConnect=0;shape=mxgraph.veeam.globe;fontSize=16;" parent="1" vertex="1">
          <mxGeometry x="225" y="533" width="30" height="29.2" as="geometry" />
        </mxCell>
        <mxCell id="5X7tObLMQbzSkKFwxiyW-132" value="" style="group" parent="1" vertex="1" connectable="0">
          <mxGeometry x="170" y="613" width="140" height="80" as="geometry" />
        </mxCell>
        <mxCell id="5X7tObLMQbzSkKFwxiyW-133" value="" style="rounded=1;whiteSpace=wrap;html=1;fontSize=16;dashed=1;strokeColor=#7EA6E0;arcSize=8;" parent="5X7tObLMQbzSkKFwxiyW-132" vertex="1">
          <mxGeometry width="140" height="80" as="geometry" />
        </mxCell>
        <mxCell id="5X7tObLMQbzSkKFwxiyW-134" value="on-prem-net" style="aspect=fixed;html=1;points=[];align=center;image;fontSize=12;image=img/lib/azure2/networking/Virtual_Networks.svg;" parent="5X7tObLMQbzSkKFwxiyW-132" vertex="1">
          <mxGeometry x="53.25" y="30" width="33.5" height="20" as="geometry" />
        </mxCell>
        <mxCell id="5X7tObLMQbzSkKFwxiyW-135" value="germany west central region" style="rounded=0;whiteSpace=wrap;html=1;fontSize=12;fillColor=none;strokeColor=#808080;dashed=1;dashPattern=1 1;verticalAlign=top;fontColor=#333333;align=center;" parent="1" vertex="1">
          <mxGeometry x="620" y="555.5999999999999" width="205" height="167.4" as="geometry" />
        </mxCell>
        <mxCell id="5X7tObLMQbzSkKFwxiyW-136" value="" style="shadow=0;dashed=0;html=1;strokeColor=none;fillColor=#4495D1;labelPosition=center;verticalLabelPosition=bottom;verticalAlign=top;align=center;outlineConnect=0;shape=mxgraph.veeam.globe;fontSize=16;" parent="1" vertex="1">
          <mxGeometry x="707" y="533" width="30" height="29.2" as="geometry" />
        </mxCell>
        <mxCell id="5X7tObLMQbzSkKFwxiyW-137" value="" style="group" parent="1" vertex="1" connectable="0">
          <mxGeometry x="655" y="613" width="140" height="80" as="geometry" />
        </mxCell>
        <mxCell id="5X7tObLMQbzSkKFwxiyW-138" value="" style="rounded=1;whiteSpace=wrap;html=1;fontSize=16;dashed=1;strokeColor=#7EA6E0;arcSize=8;" parent="5X7tObLMQbzSkKFwxiyW-137" vertex="1">
          <mxGeometry width="140" height="80" as="geometry" />
        </mxCell>
        <mxCell id="5X7tObLMQbzSkKFwxiyW-139" value="on-prem-net-2" style="aspect=fixed;html=1;points=[];align=center;image;fontSize=12;image=img/lib/azure2/networking/Virtual_Networks.svg;" parent="5X7tObLMQbzSkKFwxiyW-137" vertex="1">
          <mxGeometry x="53.25" y="30" width="33.5" height="20" as="geometry" />
        </mxCell>
      </root>
    </mxGraphModel>
  </diagram>
</mxfile>
